<?xml version="1.0" encoding="UTF-8"?>
<svg id="Layer_1" data-name="Layer 1" xmlns="http://www.w3.org/2000/svg" viewBox="0 0 1080 693.74">
  <defs>
    <style>
      .cls-1 {
        fill: #90ebd2;
      }

      .cls-2 {
        fill: #f693c1;
      }

      .cls-3 {
        fill: #fe7040;
      }
    </style>
  </defs>
  <path class="cls-1" d="M247.6,290.32c.79.38,1.61.74,2.43,1.08,1.75,0,3.5,0,5.26.01-2.55-.44-5.11-.82-7.68-1.09Z"/>
  <path class="cls-2" d="M692.01,477.65c-105.67-22.36-214.86-22.36-320.53,0-4.76,1.01-8.61,5.77-8.61,10.59v130.47c0,4.81,3.85,7.84,8.61,6.84,105.67-22.36,214.86-22.36,320.53,0,4.76,1,8.61-2.02,8.61-6.84v-130.47c0-4.81-3.85-9.58-8.61-10.59ZM459.13,580.52c0,1.52-1.42,3-3.02,3.14-5.04.47-10.08.99-15.11,1.56-1.6.18-3.02-1-3.02-2.52v-26.82c0-1.52-.71-3.96-1.6-5.04-2.49-2.9-7.28-6.73-15.97-7.39-1.59-.12-3.01,1.27-3.01,2.78v39.13c0,1.52-1.42,3.07-3.01,3.3-5.02.73-10.03,1.52-15.03,2.35-1.59.26-3-.85-3-2.36v-83.14c0-1.52,1.41-3.11,3-3.37,5.01-.83,10.02-1.61,15.03-2.35,1.59-.24,3.01.92,3.01,2.43v21.08c0,1.52,1.42,2.83,3.01,2.78,5.67.06,10.64.95,14.9,2.29,1.42.67,2.66-.15,2.66-1.83v-26.98c0-1.52,1.42-3.03,3.02-3.21,5.03-.57,10.07-1.09,15.11-1.56,1.6-.15,3.02,1.07,3.02,2.59v83.14ZM505.28,577.72c0,1.51-1.43,2.91-3.03,2.97-5.05.18-10.11.41-15.16.69-1.6.09-3.03-1.18-3.03-2.7v-83.14c0-1.52,1.43-2.95,3.03-3.04,5.05-.28,10.1-.51,15.16-.69,1.61-.06,3.03,1.25,3.03,2.76v83.14ZM596.79,496.68c-8.07,27.17-16.15,54.45-24.23,81.86-.53,1.49-2.32,2.58-3.92,2.51-4.82-.22-9.63-.41-14.45-.54-1.61-.05-3.39-1.27-3.75-2.8-8.09-28.02-16.18-55.92-24.27-83.7-.53-1.52.53-2.7,2.14-2.71,5.3-.02,10.59.02,15.89.1,1.78.03,3.39,1.24,3.93,2.77,4.7,16.23,9.4,32.51,14.1,48.82.36,1.53,1.25,1.57,1.61.06,4.7-15.94,9.39-31.84,14.09-47.7.54-1.48,2.14-2.57,3.92-2.46,4.22.27,8.44.57,12.65.9,1.78.14,2.67,1.4,2.31,2.88ZM666.51,517.09c0,1.52-1.24,2.66-3,2.36-7.3-1.22-14.62-2.33-21.94-3.35-1.6-.22-3.01.94-3.01,2.46v5.4c0,1.69,1.24,2.69,3.01,2.6,4.43-.4,9.92-.11,16.29,1.24,1.59.25,2.83,1.98,2.65,3.46-.35,3.76-.71,7.53-1.06,11.3-.18,1.49-1.59,2.44-3.18,2.19-7.25-1.48-12.04-.96-15.05-.03-1.59.45-2.66,2.34-2.66,3.85v18.72c0,1.52,1.42,3.06,3.01,3.28,7.33,1.01,14.64,2.13,21.94,3.35,1.77.29,3,1.86,3,3.37v11.47c0,1.52-1.24,2.65-3,2.36-14.31-2.38-28.67-4.38-43.06-5.99-1.6-.18-3.02-1.68-3.02-3.2v-83.14c0-1.52,1.42-2.72,3.02-2.54,14.39,1.61,28.75,3.6,43.06,5.99,1.77.3,3,1.86,3,3.37v11.47Z"/>
  <g>
    <path class="cls-2" d="M461.75,65.75v-8.31c0-1.1.86-2.08,2.08-2.08h39.62c1.22,0,2.08.98,2.08,2.08v8.31c0,1.1-.86,2.08-2.08,2.08h-10.52c-1.1,0-2.08.98-2.08,2.08v47.81c0,1.1-.86,2.08-1.96,2.08h-10.39c-1.22,0-2.08-.98-2.08-2.08v-47.81c0-1.1-.98-2.08-2.08-2.08h-10.52c-1.22,0-2.08-.98-2.08-2.08Z"/>
    <path class="cls-2" d="M554.8,119.8h-10.39c-1.1,0-2.08-.98-2.08-2.08v-19.44c0-1.1-.49-2.94-1.1-3.79-1.71-2.32-5.01-5.5-11-6.85-1.1-.25-2.08.61-2.08,1.71v28.37c0,1.1-.98,2.08-2.08,2.08h-10.39c-1.1,0-2.08-.98-2.08-2.08v-60.28c0-1.1.98-2.08,2.08-2.08h10.39c1.1,0,2.08.98,2.08,2.08v15.28c0,1.1.98,2.2,2.08,2.32,3.91.61,7.34,1.71,10.27,3.06.98.61,1.83.12,1.83-1.1v-19.56c0-1.1.98-2.08,2.08-2.08h10.39c1.1,0,2.08.98,2.08,2.08v60.28c0,1.1-.98,2.08-2.08,2.08Z"/>
    <path class="cls-2" d="M567.88,117.72v-60.28c0-1.1.98-2.08,2.08-2.08h29.71c1.22,0,2.08.98,2.08,2.08v8.31c0,1.1-.86,2.08-2.08,2.08h-15.16c-1.1,0-2.08.98-2.08,2.08v3.91c0,1.22.86,1.83,2.08,1.59,3.06-.73,6.85-1.1,11.25-.86,1.1,0,1.96,1.1,1.84,2.2l-.73,8.31c-.12,1.1-1.1,1.96-2.2,1.96-5.01-.24-8.31.61-10.39,1.59-1.1.49-1.83,1.96-1.83,3.06v13.57c0,1.1.98,2.08,2.08,2.08h15.16c1.22,0,2.08.98,2.08,2.08v8.31c0,1.1-.86,2.08-2.08,2.08h-29.71c-1.1,0-2.08-.98-2.08-2.08Z"/>
  </g>
  <g>
    <path class="cls-3" d="M135.02,373.33v-83.52c0-3.72,3.44-7.71,7.31-8.46,1.82-.35,3.63-.7,5.45-1.05-4.36-11.5-11.41-17.09-21.55-17.09-1.95,0-4.05.21-6.24.62-3.13.6-6.28,1.2-9.43,1.82-1.51.29-3.12,2.23-3.12,3.37v119.36c0,.46.18.65.23.67,3.68-.72,5.28-1.03,6.08-1.17h0c8.59-1.67,15.64-6.98,21.27-14.55Z"/>
    <path class="cls-3" d="M199.47,242.9c9.54,15.37,14.55,35.33,14.54,58.48,0,88.25-52.94,129.92-98.28,138.8-17.87,3.44-35.92,7.17-53.72,11.06l23.65,14.86c1.36,1.28,3.4,1.87,5.57,1.39,18.72-4.12,37.47-7.99,56.27-11.6,45.17-8.85,94.09-50.33,94.09-133.71,0-29.12-21.28-59.22-42.12-79.27Z"/>
  </g>
  <path class="cls-2" d="M208.83,301.37c0,83.39-48.92,124.87-94.09,133.71-18.79,3.62-37.55,7.49-56.27,11.6-3.86.85-7.28-1.69-7.28-5.41v-203.61c0-3.72,3.43-7.79,7.28-8.64,20.15-4.43,40.34-8.57,60.57-12.43,53.39-10.14,89.8,22.89,89.79,84.76ZM102.26,269.02v119.36c0,3.72,3.01,6.42,6.45,5.75,3.44-.67,6.02-1.17,6.02-1.17,21.08-4.09,42.66-31.74,42.66-84.19,0-13.97-2.61-56.73-38.36-50.04-3.16.6-6.31,1.21-9.47,1.83-3.87.75-7.31,4.74-7.31,8.46Z"/>
  <g>
    <path class="cls-3" d="M330.64,358.24c.79,0,1.6-.04,2.43-.11.99-.08,1.94-.24,2.87-.42-3.36-11.6-4.44-25.48-4.44-38.44,0-27.61,4.74-60.32,25.79-69.5-4.58-12.18-11.48-18.11-21.11-18.11-.72,0-1.45.03-2.21.1-25.18,2.24-30.47,37.53-30.48,66.74,0,27.25,4.71,59.74,27.15,59.75h0Z"/>
    <path class="cls-3" d="M409.62,211.02l-6.48-4.25c.18.24.37.46.55.71,14.2,19.44,21.7,47.61,21.7,81.45,0,72.57-34.17,118.82-91.42,123.72-3.22.28-6.42.43-9.53.43-2.55,0-5.03-.12-7.48-.31,17.85,8.17,38.99,16.43,49.75,15.48,54.39-4.65,86.68-47.83,86.67-118.55,0-48.95-18.78-82.05-43.77-98.68Z"/>
  </g>
  <path class="cls-2" d="M246.64,304.03c0-70.12,32.5-116.84,86.88-121.64,54.39-4.65,86.68,36.42,86.67,106.53,0,70.72-32.28,113.9-86.67,118.55-54.38,4.79-86.88-32.73-86.88-103.45ZM298.3,298.49c0,31.02,6.08,67.39,35.22,64.8,28.72-2.43,34.83-39.87,34.82-70.89,0-31.35-6.1-68.25-34.82-65.81-29.15,2.6-35.22,40.56-35.22,71.91Z"/>
  <g>
    <path class="cls-3" d="M639.03,200.96l-22.6-15.01c0,.1.03.19.03.28v137.53c0,46.62-31.85,77.94-79.26,77.94h-1c-7.23-.07-14.09-.86-20.55-2.28l15.22,9.75c11.01,5.67,23.95,8.77,38.14,8.91,43.2.41,75.02-27.29,75.02-72.75v-137.53c0-2.98-1.98-5.75-5.01-6.84Z"/>
    <path class="cls-3" d="M517.88,184.14v137.53c0,23.76,11.55,27.46,18.44,27.54,2.71,0,6.12-.6,9.25-2.82-.05-1.04-.11-2.05-.11-3.16v-137.53c0-2.33-1.37-4.5-3.37-5.79l-24.21-15.79s0,.01,0,.02Z"/>
  </g>
  <path class="cls-2" d="M460.78,322.35c0-45.84,0-91.69,0-137.53,0-3.72,3.49-7.11,7.42-7.19,12.36-.27,24.72-.43,37.08-.49,3.93-.02,7.42,3.28,7.42,7v137.53c0,28.9,16.14,32.63,23.56,32.72,7.42.05,23.12-3.8,23.12-32.28v-137.53c0-3.72,3.49-6.95,7.42-6.86,12.36.29,24.72.68,37.07,1.18,4.36.18,7.41,3.62,7.41,7.33v137.53c0,45.47-31.83,73.17-75.02,72.75-43.63-.41-75.48-28.7-75.48-74.17Z"/>
  <g>
    <path class="cls-3" d="M724.2,194.28c0,.08.03.17.03.25v161.48c0,.97.94,2.4,2.71,2.57,8.25.8,16.56,1.66,24.87,2.57,0-48.27,0-96.54,0-144.81,0-2.18-1.2-4.32-2.98-5.8l.23-.05-24.86-16.21Z"/>
    <path class="cls-3" d="M810.42,391.28l-21.47-14.15v28.07c0,6.26-5.26,11.35-11.72,11.35-.48,0-.97-.03-1.46-.09-31.29-3.78-63.05-6.88-94.55-9.3l20.81,13.51c1.31,1.42,3.18,2.42,5.4,2.58,33.96,2.5,67.88,5.79,101.73,9.88,3.91.47,7.38-2.4,7.38-6.12v-28.08c0-3.31-2.75-6.62-6.11-7.65Z"/>
  </g>
  <path class="cls-2" d="M719.05,194.53v161.48c0,3.72,3.04,7.31,7.39,7.73,16.67,1.62,33.32,3.44,49.95,5.45,3.91.47,7.37,4.21,7.38,7.92v28.08c0,3.72-3.47,6.59-7.38,6.12-33.85-4.09-67.76-7.38-101.73-9.88-4.36-.32-7.4-3.84-7.4-7.55v-203.61c0-3.72,3.05-6.81,7.4-6.49,12.34.91,24.67,1.92,36.99,3.04,3.92.35,7.39,3.99,7.39,7.7Z"/>
  <g>
    <path class="cls-3" d="M895.92,338.77c-.03.08-.02.33.15.67.31.61.93,1.12,1.58,1.3l.3.08.28.12c4,1.67,8.19,3.42,12.19,5.17-2.7-9.66-5.4-19.32-8.11-28.97l-6.33,21.47-.06.17Z"/>
    <path class="cls-3" d="M1024.94,463.47c-19.42-72.49-38.88-144.7-58.39-216.65-1.07-3.28-4.6-5.67-7.44-7.77-4.41-3.26-13.15-8.99-20.35-13.62,19.44,71.71,38.9,143.91,57.92,214.89.78,3.55.19,6.61-1.61,8.85-1.69,2.1-4.25,3.25-7.22,3.25-.92,0-1.88-.11-2.87-.33-9.03-1.99-18.16-3.93-27.28-5.82,5.97,3.87,12.71,8.21,17.82,11.44,1.91,1.21,3.72,2.67,5.66,3.06,12.75,2.58,25.48,5.27,38.2,8.07,4.28.95,6.43-1.46,5.57-5.37Z"/>
    <path class="cls-3" d="M883.01,389.93c-.56-.2-.9-.26-1.22-.26-.95,0-1.55.6-1.8,1.2l-8.54,28c-1.36,5.25-6.69,9.04-12.74,9.04-.71,0-1.43-.06-2.14-.17-7.24-1.15-14.56-2.26-21.88-3.34,9.84,6.43,22.27,14.49,22.6,14.66l.52.22c.53.21,1.09.36,1.69.45,10.39,1.5,20.77,3.07,31.15,4.72,3.89.62,8.21-1.57,9.07-5.15,2.88-9.44,5.76-18.88,8.64-28.31,1.03-2.79,3.71-4.74,6.93-4.64-7.85-5.9-18.45-11.99-32.29-16.41Z"/>
  </g>
  <path class="cls-2" d="M888.9,210.22c11.65,2.02,23.29,4.14,34.91,6.36,3.88.74,8.18,4.46,9.47,8.43,19.5,71.95,38.97,144.17,58.39,216.65.86,3.91-1.28,6.32-5.57,5.37-12.71-2.81-25.45-5.5-38.2-8.07-3.87-.78-8.17-4.53-9.03-8.41-.43-1.46-.86-2.92-1.29-4.38-1.29-3.97-4.3-9.93-7.31-13.4-8.61-9.09-23.24-20.58-45.68-27.75-4.32-1.57-8.2.67-9.5,4.17-2.88,9.43-5.76,18.87-8.64,28.31-.86,3.58-5.18,5.76-9.07,5.15-10.37-1.65-20.76-3.22-31.15-4.71-3.9-.56-6.5-3.82-5.2-7.35,19.63-65.37,39.24-130.46,58.8-195.29.86-3.57,5.18-5.73,9.06-5.05ZM896.24,345.73c5.17,2.16,10.35,4.33,15.09,6.45,3.88,1.96,6.03.29,5.17-3.58-4.02-14.38-8.04-28.75-12.06-43.11-.86-3.88-2.59-4.18-3.88-.7-3.16,10.72-6.32,21.45-9.49,32.19-1.29,3.49,1.29,7.66,5.18,8.76Z"/>
</svg>