<?xml version="1.0" encoding="UTF-8"?>
<svg id="Layer_1" data-name="Layer 1" xmlns="http://www.w3.org/2000/svg" viewBox="0 0 1080 693.74">
  <defs>
    <style>
      .cls-1 {
        fill: #09413a;
      }
    </style>
  </defs>
  <g>
    <path class="cls-1" d="M227.57,311.39c-.67,80.77-48.29,119.58-92.09,126.56-18.22,2.85-36.41,5.91-54.58,9.17-3.74.67-7.04-1.92-7.02-5.53.54-65.78,1.08-131.55,1.62-197.32.03-3.6,3.38-7.41,7.13-8.08,19.55-3.49,39.14-6.75,58.76-9.77,51.76-7.94,86.69,25.04,86.19,84.98ZM124.72,276.6c-.32,38.55-.63,77.1-.95,115.65-.03,3.6,2.86,6.33,6.2,5.8,3.34-.53,5.84-.92,5.84-.92,20.44-3.22,41.54-29.32,41.96-80.13.12-13.54-2.07-55.02-36.72-49.77-3.06.47-6.12.95-9.18,1.43-3.75.59-7.11,4.33-7.15,7.93Z"/>
    <path class="cls-1" d="M269.85,315.15c.56-67.92,32.35-112.27,84.93-115.82,52.58-3.43,83.43,36.7,82.86,104.58-.56,68.44-32.09,109.88-84.67,113.35-52.57,3.6-83.68-33.63-83.12-102.11ZM319.82,311.01c-.25,30.03,5.33,65.41,33.51,63.47,27.76-1.81,33.96-37.98,34.21-68,.26-30.35-5.35-66.16-33.11-64.36-28.18,1.93-34.35,38.54-34.6,68.89Z"/>
    <path class="cls-1" d="M484.11,337.57c.37-44.37.74-88.73,1.11-133.1.03-3.6,3.43-6.84,7.22-6.89,11.94-.13,23.88-.18,35.82-.14,3.8.02,7.14,3.23,7.11,6.83-.37,44.36-.74,88.72-1.11,133.08-.23,27.96,15.33,31.68,22.5,31.8,7.17.09,22.37-3.58,22.6-31.14.37-44.35.74-88.71,1.11-133.06.03-3.59,3.43-6.71,7.22-6.61,11.94.32,23.88.73,35.82,1.23,4.21.17,7.13,3.5,7.11,7.1-.37,44.35-.74,88.69-1.11,133.04-.36,43.97-31.35,70.81-73.08,70.2-42.15-.61-72.67-28.34-72.31-72.34Z"/>
    <path class="cls-1" d="M744.67,214.37c-.43,52.05-.86,104.1-1.3,156.15-.03,3.59,2.89,7.06,7.09,7.44,16.11,1.5,32.22,3.15,48.31,4.96,3.78.42,7.11,4.01,7.08,7.6-.08,9.05-.15,18.1-.23,27.15-.03,3.59-3.42,6.4-7.19,5.98-32.74-3.68-65.54-6.71-98.36-9.08-4.21-.3-7.13-3.7-7.1-7.3.55-65.64,1.09-131.28,1.64-196.92.03-3.59,3-6.59,7.21-6.28,11.92.87,23.84,1.83,35.76,2.87,3.79.33,7.12,3.83,7.09,7.43Z"/>
    <path class="cls-1" d="M909.09,227.98c11.29,1.78,22.56,3.64,33.83,5.58,3.75.64,7.91,4.17,9.13,7.98,18.37,69.17,36.71,138.55,55.02,208.14.81,3.76-1.3,6.14-5.46,5.31-12.34-2.43-24.69-4.76-37.06-7-3.75-.68-7.9-4.22-8.7-7.95-.41-1.4-.81-2.81-1.22-4.21-1.22-3.82-4.1-9.52-7-12.82-8.28-8.63-22.4-19.47-44.12-26.05-4.18-1.45-7.96.77-9.25,4.17-2.87,9.16-5.73,18.32-8.6,27.48-.87,3.47-5.08,5.64-8.84,5.1-10.04-1.45-20.1-2.84-30.16-4.17-3.77-.5-6.27-3.62-4.98-7.05,19.55-63.4,39.07-126.57,58.57-189.5.87-3.46,5.07-5.61,8.83-5.02ZM915.13,358.83c5,2,10,4.02,14.59,5.98,3.75,1.82,5.85.18,5.05-3.55-3.79-13.83-7.58-27.65-11.37-41.46-.81-3.73-2.47-4-3.76-.61-3.15,10.41-6.31,20.83-9.46,31.25-1.28,3.39,1.19,7.38,4.95,8.38Z"/>
  </g>
  <g>
    <path class="cls-1" d="M701.29,497.63c-108.89-23.04-221.4-23.04-330.29,0-4.91,1.04-8.88,5.95-8.88,10.91v134.44c0,4.96,3.97,8.08,8.88,7.05,108.89-23.04,221.4-23.04,330.29,0,4.91,1.04,8.88-2.09,8.88-7.05v-134.44c0-4.96-3.97-9.87-8.88-10.91ZM461.31,603.64c0,1.56-1.47,3.09-3.12,3.24-5.19.49-10.38,1.02-15.57,1.6-1.65.19-3.11-1.04-3.11-2.6,0-9.21,0-18.42,0-27.63,0-1.57-.73-4.08-1.65-5.19-2.56-2.99-7.5-6.94-16.45-7.62-1.64-.12-3.1,1.3-3.1,2.87v40.32c0,1.56-1.46,3.16-3.1,3.4-5.17.76-10.33,1.56-15.49,2.42-1.64.27-3.09-.87-3.09-2.44v-85.67c0-1.57,1.46-3.2,3.09-3.47,5.16-.86,10.32-1.66,15.49-2.42,1.64-.24,3.1.94,3.1,2.51v21.72c0,1.56,1.46,2.92,3.1,2.87,5.84.06,10.96.98,15.35,2.36,1.46.69,2.74-.15,2.74-1.89,0-9.27,0-18.54,0-27.8,0-1.56,1.46-3.13,3.11-3.31,5.19-.58,10.38-1.12,15.57-1.6,1.65-.15,3.12,1.11,3.12,2.67v85.67ZM508.88,600.75c0,1.56-1.47,3-3.13,3.06-5.21.19-10.42.42-15.62.71-1.65.09-3.12-1.21-3.12-2.78v-85.67c0-1.57,1.47-3.04,3.12-3.13,5.21-.28,10.41-.52,15.62-.71,1.66-.06,3.13,1.28,3.13,2.85v85.67ZM603.17,517.24c-8.32,27.99-16.64,56.11-24.97,84.36-.55,1.53-2.39,2.66-4.04,2.58-4.96-.23-9.92-.42-14.89-.56-1.65-.05-3.49-1.31-3.86-2.88-8.34-28.87-16.68-57.62-25.01-86.25-.55-1.57.55-2.79,2.21-2.79,5.46-.02,10.91.02,16.37.11,1.84.03,3.49,1.28,4.05,2.86,4.84,16.73,9.68,33.5,14.52,50.31.37,1.58,1.29,1.61,1.65.07,4.84-16.43,9.68-32.81,14.52-49.16.55-1.53,2.2-2.65,4.04-2.54,4.35.27,8.69.58,13.03.93,1.84.15,2.75,1.44,2.38,2.97ZM675.01,538.28c0,1.57-1.27,2.74-3.09,2.43-7.52-1.25-15.06-2.4-22.61-3.45-1.64-.23-3.11.97-3.11,2.53v5.56c0,1.74,1.28,2.77,3.11,2.68,4.56-.41,10.22-.11,16.78,1.28,1.64.26,2.91,2.04,2.73,3.57-.36,3.88-.73,7.76-1.09,11.64-.18,1.53-1.64,2.52-3.28,2.26-7.47-1.52-12.4-.99-15.51-.03-1.64.47-2.74,2.41-2.74,3.97v19.29c0,1.56,1.46,3.15,3.11,3.38,7.55,1.04,15.09,2.19,22.61,3.45,1.82.3,3.09,1.91,3.09,3.48v11.82c0,1.56-1.27,2.74-3.09,2.43-14.75-2.46-29.54-4.51-44.37-6.17-1.65-.19-3.11-1.73-3.11-3.3v-85.67c0-1.57,1.46-2.8,3.11-2.61,14.83,1.66,29.62,3.71,44.37,6.17,1.82.3,3.09,1.91,3.09,3.48v11.82Z"/>
    <g>
      <path class="cls-1" d="M464.02,73.2v-8.57c0-1.13.88-2.14,2.14-2.14h40.82c1.26,0,2.14,1.01,2.14,2.14v8.57c0,1.13-.88,2.14-2.14,2.14h-10.84c-1.13,0-2.14,1.01-2.14,2.14v49.27c0,1.13-.88,2.14-2.02,2.14h-10.71c-1.26,0-2.14-1.01-2.14-2.14v-49.27c0-1.13-1.01-2.14-2.14-2.14h-10.84c-1.26,0-2.14-1.01-2.14-2.14Z"/>
      <path class="cls-1" d="M559.9,128.89h-10.71c-1.13,0-2.14-1.01-2.14-2.14v-20.03c0-1.13-.5-3.02-1.13-3.91-1.76-2.39-5.17-5.67-11.34-7.06-1.13-.25-2.14.63-2.14,1.76v29.23c0,1.13-1.01,2.14-2.14,2.14h-10.71c-1.13,0-2.14-1.01-2.14-2.14v-62.12c0-1.13,1.01-2.14,2.14-2.14h10.71c1.13,0,2.14,1.01,2.14,2.14v15.75c0,1.13,1.01,2.27,2.14,2.39,4.03.63,7.56,1.76,10.58,3.15,1.01.63,1.89.12,1.89-1.13v-20.16c0-1.13,1.01-2.14,2.14-2.14h10.71c1.13,0,2.14,1.01,2.14,2.14v62.12c0,1.13-1.01,2.14-2.14,2.14Z"/>
      <path class="cls-1" d="M573.38,126.75v-62.12c0-1.13,1.01-2.14,2.14-2.14h30.62c1.26,0,2.14,1.01,2.14,2.14v8.57c0,1.13-.88,2.14-2.14,2.14h-15.62c-1.13,0-2.14,1.01-2.14,2.14v4.03c0,1.26.88,1.89,2.14,1.64,3.15-.76,7.06-1.13,11.59-.88,1.13,0,2.02,1.13,1.89,2.27l-.76,8.57c-.13,1.13-1.13,2.02-2.27,2.02-5.17-.25-8.57.63-10.71,1.64-1.13.5-1.89,2.01-1.89,3.15v13.99c0,1.13,1.01,2.14,2.14,2.14h15.62c1.26,0,2.14,1.01,2.14,2.14v8.57c0,1.13-.88,2.14-2.14,2.14h-30.62c-1.13,0-2.14-1.01-2.14-2.14Z"/>
    </g>
  </g>
</svg>