<?xml version="1.0" encoding="UTF-8"?>
<svg id="Layer_1" data-name="Layer 1" xmlns="http://www.w3.org/2000/svg" viewBox="0 0 1080 1080">
  <defs>
    <style>
      .cls-1 {
        fill: #ed90b1;
      }

      .cls-2 {
        fill: #09413a;
      }

      .cls-3 {
        fill: #f693c1;
      }
    </style>
  </defs>
  <g>
    <path class="cls-3" d="M437.11,340.82l-15.73,2.66c-6.43,1.09-12.19,7.95-12.24,14.57l-1.45,212.75c-.05,6.63,4.92,11.67,10.64,10.7,5.72-.97,10.01-1.69,10.01-1.69,35.03-5.93,71.06-54.68,71.69-148.17.17-25.03-3.6-100.86-62.93-90.82Z"/>
    <path class="cls-3" d="M983.13,328.71c0-26.94-14.37-51.84-37.7-65.31L582.33,53.77c-23.33-13.47-52.08-13.47-75.41,0l-363.1,209.64c-23.33,13.47-37.7,38.37-37.7,65.31v419.27c0,26.94,14.37,51.84,37.7,65.31l363.1,209.63c23.33,13.47,52.08,13.47,75.41,0l363.1-209.64c23.33-13.47,37.7-38.37,37.7-65.31v-419.27ZM751.3,747.87c-.05,6.63-5.8,13.48-12.24,14.57l-60.76,10.29c-6.43,1.09-12.11-3.83-12.07-10.46l.8-117.05c.05-6.63-2.74-17.18-6.28-21.73-9.91-12.29-29.08-28.17-64.05-30.33-6.42-.38-12.18,5.74-12.22,12.36l-1.16,170.79c-.05,6.63-5.8,13.48-12.24,14.57l-60.76,10.29c-6.43,1.09-12.11-3.83-12.07-10.46l1.14-167.83c-22.57,17.37-47.38,27.92-71.56,32.02l-93.64,15.86c-6.43,1.09-12.11-3.83-12.07-10.46l2.47-362.93c.04-6.63,5.8-13.48,12.24-14.57l100.79-17.07c86.07-14.57,144.74,39.28,147.38,143.52.51,1.26.16,96.15.16,96.15-.04,6.63,5.63,12.28,12.06,11.93,22.85-.19,42.82,3.04,59.92,8.24,5.7,2.71,10.72-1.08,10.77-8.44l.8-117.79c.05-6.63,5.81-13.48,12.24-14.57l60.76-10.29c6.43-1.09,12.11,3.83,12.07,10.46l-2.47,362.93Z"/>
  </g>
  <g>
    <path class="cls-2" d="M418.34,581.51c5.72-.97,10.01-1.69,10.01-1.69,3.34-.57,6.69-1.53,10.02-2.88l1.24-182.81c.05-6.63,5.8-13.48,12.24-14.57l15.73-2.66c9.9-1.68,18.21-.9,25.26,1.57-7.73-23.27-23.54-43.09-55.72-37.64l-15.73,2.66c-6.43,1.09-12.19,7.95-12.24,14.57l-1.45,212.75c-.05,6.63,4.92,11.67,10.64,10.7Z"/>
    <path class="cls-2" d="M585,409.26c.51,1.26.16,96.15.16,96.15-.04,6.63,5.63,12.28,12.06,11.93,6.39-.05,12.53.19,18.48.64.07-28.19.12-71.8-.23-72.65-1.07-42.13-11.3-76-28.79-100.47-6.15-8.6-38.23-48.09-49.53-57.25-9.69-7.87-20.66-13.84-32.73-17.85,48.38,16.61,78.71,65.26,80.59,139.51Z"/>
    <path class="cls-1" d="M659.27,526.29c-.36-.12-.72-.2-1.09-.37-.05-.01-.1-.03-.15-.04.41.15.83.33,1.24.41Z"/>
    <path class="cls-2" d="M660.76,623.49c-9.91-12.29-29.08-28.17-64.05-30.33-6.42-.38-12.18,5.74-12.22,12.36l-1.16,170.79c-.05,6.63-5.8,13.48-12.24,14.57l-60.76,10.29c-2.73.46-5.29-.2-7.36-1.57,7.43,9.94,27.47,33.64,29.32,35.26,2.22,1.95,5.27,2.92,8.51,2.38l60.76-10.29c6.43-1.09,12.19-7.95,12.24-14.57l1.16-170.79c.04-6.63,5.8-12.75,12.22-12.36,16.39,1.02,29.26,5.07,39.38,10.32-.94-5.95-3.15-12.67-5.79-16.06Z"/>
    <path class="cls-2" d="M499.4,622.89c-22.57,17.37-47.38,27.92-71.56,32.02l-93.64,15.86c-2.19.37-4.26,0-6.08-.85,9.87,14.09,31.61,37.75,36.54,36.91l93.64-15.86c13.55-2.29,27.29-6.66,40.72-13.07l.37-55.01Z"/>
    <path class="cls-2" d="M780.63,412.88c-2.76-3.23-27.2-33.8-29.41-35.72-1.19-1.03-2.63-1.76-4.19-2.15,3.93,1.46,6.78,5.24,6.75,9.92l-2.47,362.93c-.05,6.63-5.8,13.48-12.24,14.57l-60.76,10.29c-2.47.42-4.81-.06-6.77-1.16,5.4,6.32,26.64,32.93,28.54,34.68,2.24,2.06,5.37,3.11,8.7,2.55l60.76-10.29c6.43-1.09,12.19-7.95,12.24-14.57l2.47-362.93c.02-3.31-1.7-5.89-3.6-8.12Z"/>
  </g>
</svg>