<?xml version="1.0" encoding="UTF-8"?>
<svg id="Layer_1" data-name="Layer 1" xmlns="http://www.w3.org/2000/svg" viewBox="0 0 1080 1080">
  <defs>
    <style>
      .cls-1 {
        fill: #f9f4e0;
      }

      .cls-2 {
        fill: #09413a;
      }

      .cls-3 {
        fill: #f693c1;
      }
    </style>
  </defs>
  <path class="cls-3" d="M501.05,37.17L125.51,253.99c-24.13,13.93-39,39.68-39,67.54v433.63c0,27.86,14.87,53.61,39,67.54l375.53,216.81c24.13,13.93,53.86,13.93,77.99,0l375.53-216.81c24.13-13.93,39-39.68,39-67.54v-433.63c0-27.86-14.87-53.61-39-67.54L579.04,37.17c-24.13-13.93-53.86-13.93-77.99,0Z"/>
  <path class="cls-2" d="M752.34,371.65c-2.29-1.99-5.43-2.98-8.75-2.42l-62.84,10.64c-6.65,1.13-12.61,8.22-12.66,15.07l-.83,121.82c-.05,7.61-5.25,11.53-11.14,8.73-13.03-3.96-27.69-6.8-43.95-7.95.07-29.14.12-74.52-.23-75.4-1.1-43.57-11.69-78.6-29.78-103.91-6.36-8.9-39.54-49.73-51.22-59.21-26.05-21.15-60.96-29.18-101.85-22.26l-104.24,17.65c-6.65,1.13-12.61,8.22-12.66,15.07l-2.55,375.36c-.05,6.85,36.25,48.88,42.9,47.76l96.85-16.4c14.38-2.43,28.97-7.09,43.21-14l-.8,117.53c-.01,1.71.35,3.32.99,4.74,1.94,4.27,30.84,38.57,33.11,40.56,2.3,2.02,5.45,3.02,8.8,2.46l62.84-10.64c6.65-1.13,12.61-8.22,12.66-15.07l1.2-176.64c.05-6.85,6-13.18,12.64-12.79,17.55,1.09,31.22,5.52,41.85,11.24.31,2.03.48,3.97.47,5.66l-.82,121.06c-.02,3.16,1.22,5.95,3.22,7.93,2.33,2.3,28.54,35.21,30.69,37.2,2.31,2.13,5.55,3.22,9,2.64l62.84-10.64c6.65-1.13,12.61-8.22,12.66-15.07l2.55-375.36c.02-3.43-1.76-6.09-3.73-8.4-2.86-3.35-28.13-34.95-30.42-36.94ZM493.64,428.35c-.6,88.44-31.83,138.14-64.87,150.68l1.29-189.84c.05-6.85,6-13.95,12.66-15.07l16.26-2.75c10.74-1.82,19.71-.91,27.21,1.95,6.75,20.31,7.53,43.18,7.45,55.03Z"/>
  <path class="cls-1" d="M742.5,368.87l-62.84,10.64c-6.65,1.13-12.61,8.22-12.66,15.07l-.83,121.82c-.05,7.61-5.25,11.53-11.14,8.73-17.69-5.37-38.34-8.72-61.97-8.52-6.65.37-12.52-5.49-12.47-12.34,0,0,.36-98.14-.16-99.44-2.73-107.81-63.41-163.51-152.43-148.44l-104.24,17.65c-6.65,1.13-12.61,8.22-12.66,15.07l-2.55,375.36c-.05,6.85,5.83,11.94,12.48,10.81l96.85-16.4c25.01-4.23,50.67-15.14,74.01-33.11l-1.18,173.58c-.05,6.85,5.83,11.94,12.48,10.82l62.84-10.64c6.65-1.13,12.61-8.22,12.66-15.07l1.2-176.64c.05-6.85,6-13.18,12.64-12.79,36.17,2.24,56,18.66,66.25,31.37,3.66,4.7,6.54,15.62,6.49,22.48l-.82,121.06c-.05,6.85,5.83,11.94,12.48,10.82l62.84-10.64c6.65-1.13,12.61-8.22,12.66-15.07l2.55-375.36c.05-6.85-5.83-11.94-12.48-10.82ZM418.41,581.23s-4.44.75-10.35,1.75c-5.91,1-11.05-4.21-11-11.07l1.5-220.04c.05-6.85,6-13.95,12.66-15.07l16.26-2.75c61.36-10.39,65.26,68.04,65.08,93.93-.66,96.7-37.92,147.11-74.15,153.25Z"/>
</svg>