<?xml version="1.0" encoding="UTF-8"?>
<svg id="Layer_1" data-name="Layer 1" xmlns="http://www.w3.org/2000/svg" viewBox="0 0 1080 1080">
  <defs>
    <style>
      .cls-1 {
        fill: #f693c1;
      }
    </style>
  </defs>
  <path class="cls-1" d="M422.93,340.21l-15.87,2.69c-6.49,1.1-12.31,8.02-12.35,14.71l-1.46,214.74c-.05,6.69,4.96,11.78,10.74,10.8,5.77-.98,10.1-1.71,10.1-1.71,35.35-5.99,71.72-55.19,72.37-149.56.17-25.26-3.63-101.81-63.52-91.67Z"/>
  <path class="cls-1" d="M937.33,262.07L570.84,50.48c-23.55-13.6-52.56-13.6-76.11,0l-366.49,211.59c-23.55,13.6-38.06,38.72-38.06,65.92v423.18c0,27.19,14.51,52.32,38.06,65.92l366.49,211.59c23.55,13.6,52.56,13.6,76.11,0l366.49-211.59c23.55-13.6,38.06-38.72,38.06-65.92v-423.18c0-27.19-14.51-52.32-38.06-65.92ZM740.05,751.05c-.05,6.69-5.86,13.61-12.35,14.71l-61.33,10.38c-6.49,1.1-12.23-3.87-12.18-10.56l.8-118.14c.05-6.69-2.76-17.35-6.34-21.94-10-12.41-29.35-28.43-64.65-30.61-6.48-.39-12.29,5.79-12.34,12.48l-1.17,172.39c-.05,6.69-5.86,13.61-12.35,14.71l-61.33,10.38c-6.49,1.1-12.22-3.87-12.18-10.56l1.15-169.4c-22.78,17.54-47.82,28.18-72.23,32.31l-94.52,16c-6.49,1.1-12.23-3.87-12.18-10.55l2.49-366.32c.04-6.69,5.86-13.61,12.35-14.71l101.73-17.22c86.88-14.71,146.09,39.65,148.76,144.86.51,1.27.16,97.05.16,97.05-.04,6.69,5.68,12.4,12.17,12.04,23.06-.19,43.22,3.07,60.48,8.31,5.75,2.74,10.82-1.09,10.87-8.52l.81-118.89c.05-6.69,5.86-13.61,12.35-14.71l61.33-10.38c6.49-1.1,12.23,3.87,12.18,10.56l-2.49,366.32Z"/>
</svg>